<?xml version="1.0" standalone="no"?>
<svg xmlns:xlink="http://www.w3.org/1999/xlink" id="wave" style="transform:rotate(0deg); transition: 0.3s" viewBox="0 0 1440 490" version="1.1" xmlns="http://www.w3.org/2000/svg"><defs><linearGradient id="sw-gradient-0" x1="0" x2="0" y1="1" y2="0"><stop stop-color="rgba(62, 144.9, 243, 1)" offset="0%"/><stop stop-color="rgba(11, 180.612, 255, 1)" offset="100%"/></linearGradient></defs><path style="transform:translate(0, 0px); opacity:1" fill="url(#sw-gradient-0)" d="M0,98L34.3,130.7C68.6,163,137,229,206,212.3C274.3,196,343,98,411,81.7C480,65,549,131,617,196C685.7,261,754,327,823,343C891.4,359,960,327,1029,334.8C1097.1,343,1166,392,1234,367.5C1302.9,343,1371,245,1440,228.7C1508.6,212,1577,278,1646,285.8C1714.3,294,1783,245,1851,212.3C1920,180,1989,163,2057,138.8C2125.7,114,2194,82,2263,57.2C2331.4,33,2400,16,2469,65.3C2537.1,114,2606,229,2674,277.7C2742.9,327,2811,310,2880,318.5C2948.6,327,3017,359,3086,334.8C3154.3,310,3223,229,3291,171.5C3360,114,3429,82,3497,130.7C3565.7,180,3634,310,3703,326.7C3771.4,343,3840,245,3909,228.7C3977.1,212,4046,278,4114,294C4182.9,310,4251,278,4320,253.2C4388.6,229,4457,212,4526,245C4594.3,278,4663,359,4731,367.5C4800,376,4869,310,4903,277.7L4937.1,245L4937.1,490L4902.9,490C4868.6,490,4800,490,4731,490C4662.9,490,4594,490,4526,490C4457.1,490,4389,490,4320,490C4251.4,490,4183,490,4114,490C4045.7,490,3977,490,3909,490C3840,490,3771,490,3703,490C3634.3,490,3566,490,3497,490C3428.6,490,3360,490,3291,490C3222.9,490,3154,490,3086,490C3017.1,490,2949,490,2880,490C2811.4,490,2743,490,2674,490C2605.7,490,2537,490,2469,490C2400,490,2331,490,2263,490C2194.3,490,2126,490,2057,490C1988.6,490,1920,490,1851,490C1782.9,490,1714,490,1646,490C1577.1,490,1509,490,1440,490C1371.4,490,1303,490,1234,490C1165.7,490,1097,490,1029,490C960,490,891,490,823,490C754.3,490,686,490,617,490C548.6,490,480,490,411,490C342.9,490,274,490,206,490C137.1,490,69,490,34,490L0,490Z"/></svg>